<?xml version="1.0" standalone="no"?>
<!DOCTYPE svg PUBLIC "-//W3C//DTD SVG 20010904//EN"
 "http://www.w3.org/TR/2001/REC-SVG-20010904/DTD/svg10.dtd">
<svg version="1.0" xmlns="http://www.w3.org/2000/svg"
 width="335.000000pt" height="63.000000pt" viewBox="0 0 335.000000 63.000000"
 preserveAspectRatio="xMidYMid meet">

<g transform="translate(0.000000,63.000000) scale(0.100000,-0.100000)"
fill="#000000" stroke="none">
<path d="M227 594 c-4 -4 -39 -8 -77 -8 -41 -1 -74 -6 -82 -14 -9 -9 -4 -12
28 -12 21 0 57 -9 79 -19 39 -17 105 -82 105 -102 0 -5 17 7 38 28 20 22 48
46 62 54 l24 16 -42 28 c-41 27 -120 44 -135 29z"/>
<path d="M555 560 c-120 -24 -217 -86 -257 -163 -17 -33 -20 -53 -16 -107 6
-83 39 -148 110 -216 l51 -49 -30 45 c-90 135 -47 218 131 252 58 11 72 18
109 56 l42 44 -101 -4 c-86 -3 -109 -8 -154 -31 -63 -33 -49 -9 19 31 41 24
58 27 157 31 l112 3 58 59 58 59 -124 -1 c-69 -1 -143 -5 -165 -9z"/>
<path d="M1047 399 c-15 -27 -15 -33 -3 -57 28 -53 166 -286 175 -295 5 -5 22
-7 39 -5 l31 3 -108 188 c-60 104 -111 190 -113 192 -2 2 -11 -10 -21 -26z"/>
<path d="M2796 393 c-12 -24 -12 -30 1 -50 17 -26 9 -46 -17 -38 -10 3 -25 -1
-34 -10 -14 -14 -146 -241 -146 -251 0 -2 49 -4 108 -4 l108 0 18 37 c14 30
15 41 5 65 -15 37 -26 35 -46 -7 -14 -30 -22 -35 -50 -35 -18 0 -33 3 -33 6 0
11 104 184 111 184 3 0 37 -53 74 -117 38 -65 74 -121 79 -125 16 -11 68 -10
64 1 -9 27 -214 371 -220 371 -4 0 -14 -12 -22 -27z"/>
<path d="M690 290 l0 -110 35 0 c34 0 35 1 35 40 0 39 1 40 33 40 31 0 33 -2
32 -37 0 -36 2 -38 33 -41 l32 -3 0 111 0 111 -32 -3 c-30 -3 -33 -6 -33 -38
0 -32 -3 -35 -33 -38 -31 -3 -32 -2 -32 37 0 40 -1 41 -35 41 l-35 0 0 -110z"/>
<path d="M1280 290 l0 -110 81 0 c85 0 112 8 129 40 8 15 7 27 -4 48 -9 18
-11 33 -5 43 14 23 10 55 -9 72 -14 13 -39 17 -105 17 l-87 0 0 -110z m120 45
c0 -8 -7 -15 -15 -15 -8 0 -15 7 -15 15 0 8 7 15 15 15 8 0 15 -7 15 -15z m8
-82 c2 -8 -5 -13 -17 -13 -12 0 -21 6 -21 16 0 18 31 15 38 -3z"/>
<path d="M1550 290 l0 -110 45 0 45 0 0 110 0 110 -45 0 -45 0 0 -110z"/>
<path d="M1710 290 l0 -110 83 0 c96 0 127 14 127 59 0 16 -6 34 -14 40 -12
10 -12 16 -1 38 7 14 11 33 8 42 -12 33 -36 41 -120 41 l-83 0 0 -110z m118
43 c2 -8 -5 -13 -17 -13 -12 0 -21 6 -21 16 0 18 31 15 38 -3z m0 -80 c2 -8
-5 -13 -17 -13 -12 0 -21 6 -21 16 0 18 31 15 38 -3z"/>
<path d="M1970 335 c0 -74 18 -128 48 -144 12 -6 42 -11 67 -11 38 0 52 5 76
29 27 28 29 34 29 110 l0 81 -45 0 -45 0 0 -70 c0 -56 -3 -70 -15 -70 -12 0
-15 14 -15 70 l0 70 -50 0 -50 0 0 -65z"/>
<path d="M2260 290 l0 -110 85 0 85 0 0 40 0 40 -40 0 -40 0 0 70 0 70 -45 0
-45 0 0 -110z"/>
<path d="M2480 290 l0 -110 85 0 85 0 0 40 0 40 -40 0 -40 0 0 70 0 70 -45 0
-45 0 0 -110z"/>
<path d="M3030 290 l0 -110 35 0 c34 0 35 1 35 40 0 39 1 40 36 40 36 0 36 0
32 -40 -3 -39 -3 -40 29 -40 l33 0 0 110 0 110 -35 0 c-35 0 -36 -1 -33 -37 3
-36 1 -38 -29 -41 -32 -3 -33 -2 -33 37 0 40 -1 41 -35 41 l-35 0 0 -110z"/>
<path d="M1000 300 c-12 -7 -150 -240 -150 -252 0 -5 47 -8 104 -8 l104 0 22
35 c22 36 21 64 -4 84 -11 9 -18 4 -35 -24 -16 -28 -27 -35 -51 -35 -16 0 -30
3 -30 7 0 4 23 47 50 95 28 48 50 90 50 92 0 8 -49 13 -60 6z"/>
<path d="M463 273 c-19 -7 -16 -41 8 -93 25 -56 62 -96 114 -122 l39 -21 -31
36 c-43 49 -79 113 -93 165 -11 42 -14 45 -37 35z"/>
<path d="M391 222 c-12 -23 27 -113 67 -155 34 -36 97 -69 123 -65 16 2 10 10
-28 38 -49 36 -110 123 -120 173 -6 31 -28 36 -42 9z"/>
</g>
</svg>
