<?xml version="1.0" encoding="UTF-8"?>
<svg xmlns="http://www.w3.org/2000/svg" xmlns:xlink="http://www.w3.org/1999/xlink" width="107px" height="33px" viewBox="0 0 107 33" version="1.1">
<g id="surface1">
<path style=" stroke:none;fill-rule:nonzero;fill:rgb(0%,0%,0%);fill-opacity:1;" d="M 79.394531 13.292969 C 79.394531 13.324219 79.628906 13.40625 79.90625 13.46875 C 80.25 13.554688 80.378906 13.640625 80.3125 13.726562 C 80.25 13.8125 80.335938 13.875 80.570312 13.898438 C 81.019531 13.953125 81.40625 13.832031 81.425781 13.648438 C 81.425781 13.5625 81.640625 13.46875 81.917969 13.425781 C 82.199219 13.386719 82.324219 13.332031 82.21875 13.304688 C 82.089844 13.285156 81.746094 13.359375 81.425781 13.46875 L 80.871094 13.683594 L 80.121094 13.457031 C 79.738281 13.339844 79.394531 13.265625 79.394531 13.292969 Z M 79.394531 13.292969 "/>
<path style=" stroke:none;fill-rule:nonzero;fill:rgb(0%,0%,0%);fill-opacity:1;" d="M 77.339844 13.660156 C 76.632812 13.746094 76.183594 13.992188 76.183594 14.277344 C 76.183594 14.808594 78.023438 15.027344 79.671875 14.683594 C 80.101562 14.59375 80.464844 14.492188 80.464844 14.460938 C 80.464844 14.328125 80.144531 14.347656 79.285156 14.53125 C 78.21875 14.765625 77.46875 14.75 76.910156 14.488281 C 76.460938 14.277344 76.65625 14.03125 77.359375 13.886719 C 78.109375 13.734375 78.816406 13.8125 80.121094 14.183594 C 82.582031 14.902344 83.996094 15.035156 85.042969 14.644531 C 85.6875 14.414062 85.75 14.191406 85.234375 13.917969 C 84.742188 13.667969 83.886719 13.5625 83.03125 13.65625 C 82.027344 13.761719 81.105469 13.984375 81.234375 14.089844 C 81.320312 14.164062 81.554688 14.136719 82.21875 13.984375 C 82.710938 13.878906 83.332031 13.792969 83.609375 13.792969 C 84.273438 13.792969 84.957031 14.019531 84.957031 14.242188 C 84.957031 14.449219 84.1875 14.71875 83.632812 14.71875 C 83.183594 14.71875 81.8125 14.425781 80.679688 14.089844 C 80.144531 13.933594 79.351562 13.753906 78.921875 13.695312 C 78.023438 13.582031 77.960938 13.582031 77.339844 13.660156 Z M 77.339844 13.660156 "/>
<path style=" stroke:none;fill-rule:nonzero;fill:rgb(0%,0%,0%);fill-opacity:1;" d="M 12.753906 14.441406 C 12.371094 14.492188 12.390625 14.507812 12.902344 14.632812 L 13.460938 14.765625 L 12.988281 15.132812 C 12.582031 15.464844 12.453125 15.503906 11.769531 15.535156 C 10.722656 15.589844 9.628906 15.582031 9.671875 15.523438 C 9.714844 15.449219 9.394531 15.246094 9.222656 15.246094 C 8.988281 15.246094 8.558594 15.554688 8.558594 15.707031 C 8.558594 15.859375 9.09375 15.886719 9.351562 15.746094 C 9.480469 15.667969 9.738281 15.707031 10.570312 15.925781 L 11.597656 16.210938 L 11.34375 16.59375 C 11.214844 16.796875 11.128906 16.988281 11.191406 17 C 11.257812 17.019531 11.835938 16.941406 12.496094 16.828125 L 13.695312 16.617188 L 14.914062 16.835938 C 15.578125 16.957031 16.027344 17.0625 15.878906 17.082031 C 15.601562 17.105469 15.515625 17.425781 15.792969 17.425781 C 15.878906 17.425781 16.265625 17.363281 16.648438 17.292969 C 17.375 17.152344 17.546875 17.035156 17.011719 17.019531 C 16.84375 17.015625 16.585938 17.007812 16.433594 17 C 16.308594 17 16.070312 16.828125 15.921875 16.632812 L 15.644531 16.269531 L 16.605469 15.984375 C 17.25 15.808594 17.675781 15.726562 17.847656 15.761719 C 17.976562 15.792969 18.253906 15.839844 18.46875 15.859375 C 18.8125 15.898438 18.851562 15.878906 18.726562 15.6875 C 18.46875 15.339844 18.210938 15.226562 17.847656 15.320312 C 17.675781 15.359375 17.546875 15.449219 17.546875 15.523438 C 17.546875 15.617188 17.441406 15.640625 17.183594 15.621094 C 16.96875 15.601562 16.347656 15.570312 15.792969 15.542969 C 14.832031 15.503906 14.789062 15.496094 14.339844 15.148438 L 13.867188 14.785156 L 14.359375 14.660156 C 14.636719 14.585938 14.808594 14.511719 14.746094 14.488281 C 14.507812 14.421875 13.183594 14.386719 12.753906 14.441406 Z M 12.753906 14.441406 "/>
<path style=" stroke:none;fill-rule:nonzero;fill:rgb(0%,0%,0%);fill-opacity:1;" d="M 20.480469 14.425781 C 20.394531 14.453125 19.644531 14.480469 18.832031 14.480469 C 17.953125 14.488281 17.25 14.519531 17.078125 14.574219 C 16.882812 14.632812 16.992188 14.652344 17.675781 14.652344 C 18.125 14.652344 18.894531 14.710938 19.367188 14.777344 C 20.203125 14.890625 21.613281 15.320312 21.613281 15.449219 C 21.613281 15.484375 21.976562 15.40625 22.425781 15.265625 C 22.855469 15.121094 23.453125 14.960938 23.753906 14.910156 L 24.269531 14.804688 L 23.367188 14.617188 C 22.492188 14.441406 20.800781 14.328125 20.480469 14.425781 Z M 20.480469 14.425781 "/>
<path style=" stroke:none;fill-rule:nonzero;fill:rgb(0%,0%,0%);fill-opacity:1;" d="M 27.5 14.652344 C 24.972656 14.808594 22.855469 15.21875 22.042969 15.714844 C 21.015625 16.328125 21.804688 17.207031 23.988281 17.851562 L 25.101562 18.183594 L 24.460938 17.886719 C 22.535156 16.996094 23.453125 16.445312 27.261719 16.222656 C 28.503906 16.148438 28.804688 16.105469 29.597656 15.851562 L 30.496094 15.5625 L 28.332031 15.589844 C 26.472656 15.609375 26 15.640625 25.015625 15.792969 C 23.988281 15.957031 23.925781 15.964844 24.289062 15.839844 C 25.210938 15.523438 26.277344 15.417969 28.804688 15.390625 L 31.203125 15.363281 L 32.441406 14.976562 L 33.683594 14.585938 L 31.03125 14.59375 C 29.554688 14.597656 27.96875 14.625 27.5 14.652344 Z M 27.5 14.652344 "/>
<path style=" stroke:none;fill-rule:nonzero;fill:rgb(0%,0%,0%);fill-opacity:1;" d="M 80.464844 15.015625 C 80.464844 15.398438 80.507812 15.449219 80.847656 15.429688 C 81.148438 15.410156 81.214844 15.339844 81.214844 15.015625 C 81.214844 14.691406 81.148438 14.617188 80.847656 14.597656 C 80.507812 14.578125 80.464844 14.632812 80.464844 15.015625 Z M 80.464844 15.015625 "/>
<path style=" stroke:none;fill-rule:nonzero;fill:rgb(0%,0%,0%);fill-opacity:1;" d="M 38.027344 15.714844 C 37.707031 15.894531 37.707031 15.933594 37.964844 16.089844 C 38.5625 16.441406 41.515625 17.976562 41.707031 18.039062 C 41.816406 18.070312 42.179688 18.085938 42.542969 18.070312 L 43.207031 18.050781 L 40.894531 16.808594 C 39.613281 16.125 38.519531 15.554688 38.476562 15.542969 C 38.433594 15.53125 38.242188 15.609375 38.027344 15.714844 Z M 38.027344 15.714844 "/>
<path style=" stroke:none;fill-rule:nonzero;fill:rgb(0%,0%,0%);fill-opacity:1;" d="M 75.5 15.722656 C 75.222656 15.914062 75.199219 15.957031 75.476562 16.085938 C 75.839844 16.253906 75.671875 16.386719 75.15625 16.339844 C 74.941406 16.320312 74.664062 16.328125 74.535156 16.355469 C 74.300781 16.402344 71.261719 17.984375 71.261719 18.058594 C 71.261719 18.070312 72.3125 18.085938 73.574219 18.085938 L 75.882812 18.085938 L 76.269531 17.839844 C 76.570312 17.640625 76.589844 17.570312 76.375 17.410156 C 76.054688 17.167969 75.820312 17.179688 75.390625 17.457031 C 75.09375 17.65625 74.921875 17.6875 74.320312 17.6875 C 73.9375 17.6875 73.617188 17.667969 73.617188 17.648438 C 73.617188 17.574219 75.839844 16.433594 75.992188 16.433594 C 76.078125 16.433594 76.824219 16.804688 77.683594 17.257812 C 79.179688 18.0625 79.246094 18.085938 79.949219 18.085938 C 80.355469 18.085938 80.679688 18.070312 80.679688 18.058594 C 80.679688 18.019531 76.183594 15.621094 75.992188 15.554688 C 75.90625 15.53125 75.691406 15.601562 75.5 15.722656 Z M 75.5 15.722656 "/>
<path style=" stroke:none;fill-rule:nonzero;fill:rgb(0%,0%,0%);fill-opacity:1;" d="M 30.386719 16.433594 L 30.386719 17.160156 L 31.136719 17.160156 C 31.863281 17.160156 31.886719 17.152344 31.886719 16.894531 C 31.886719 16.644531 31.929688 16.632812 32.527344 16.632812 C 32.976562 16.632812 33.171875 16.664062 33.191406 16.746094 C 33.277344 17.128906 33.277344 17.128906 33.984375 17.148438 L 34.667969 17.167969 L 34.667969 15.703125 L 33.984375 15.722656 C 33.339844 15.742188 33.277344 15.761719 33.277344 15.972656 C 33.277344 16.183594 33.210938 16.203125 32.59375 16.222656 C 31.90625 16.242188 31.886719 16.234375 31.886719 15.980469 C 31.886719 15.714844 31.863281 15.707031 31.136719 15.707031 L 30.386719 15.707031 Z M 30.386719 16.433594 "/>
<path style=" stroke:none;fill-rule:nonzero;fill:rgb(0%,0%,0%);fill-opacity:1;" d="M 43.015625 16.433594 L 43.015625 17.160156 L 44.683594 17.160156 C 46.738281 17.160156 47.164062 17.121094 47.507812 16.9375 C 47.722656 16.808594 47.699219 16.746094 47.445312 16.585938 C 47.230469 16.460938 47.1875 16.363281 47.316406 16.296875 C 47.613281 16.144531 47.53125 15.933594 47.121094 15.820312 C 46.824219 15.734375 46.289062 15.707031 44.875 15.707031 L 43.015625 15.707031 Z M 45.582031 16.136719 C 45.582031 16.191406 45.433594 16.234375 45.261719 16.234375 C 45.089844 16.234375 44.941406 16.191406 44.941406 16.136719 C 44.941406 16.085938 45.089844 16.039062 45.261719 16.039062 C 45.433594 16.039062 45.582031 16.085938 45.582031 16.136719 Z M 45.644531 16.664062 C 45.667969 16.699219 45.519531 16.738281 45.324219 16.75 C 45.089844 16.765625 44.941406 16.730469 44.941406 16.664062 C 44.941406 16.554688 45.582031 16.546875 45.644531 16.664062 Z M 45.644531 16.664062 "/>
<path style=" stroke:none;fill-rule:nonzero;fill:rgb(0%,0%,0%);fill-opacity:1;" d="M 48.792969 16.433594 L 48.792969 17.160156 L 50.71875 17.160156 L 50.71875 15.707031 L 48.792969 15.707031 Z M 48.792969 16.433594 "/>
<path style=" stroke:none;fill-rule:nonzero;fill:rgb(0%,0%,0%);fill-opacity:1;" d="M 52.214844 16.433594 L 52.214844 17.160156 L 53.992188 17.160156 C 56.046875 17.160156 56.710938 17.066406 56.710938 16.769531 C 56.710938 16.664062 56.582031 16.546875 56.410156 16.507812 C 56.152344 16.441406 56.152344 16.402344 56.390625 16.253906 C 56.539062 16.164062 56.625 16.039062 56.558594 15.980469 C 56.304688 15.761719 55.789062 15.707031 53.992188 15.707031 L 52.214844 15.707031 Z M 54.742188 16.148438 C 54.785156 16.203125 54.632812 16.234375 54.378906 16.234375 C 54.121094 16.234375 53.929688 16.195312 53.929688 16.128906 C 53.929688 16.011719 54.589844 16.03125 54.742188 16.148438 Z M 54.742188 16.679688 C 54.785156 16.730469 54.632812 16.765625 54.378906 16.765625 C 54.121094 16.765625 53.929688 16.722656 53.929688 16.660156 C 53.929688 16.539062 54.589844 16.558594 54.742188 16.679688 Z M 54.742188 16.679688 "/>
<path style=" stroke:none;fill-rule:nonzero;fill:rgb(0%,0%,0%);fill-opacity:1;" d="M 57.800781 16.148438 C 57.886719 16.949219 58.402344 17.160156 60.199219 17.160156 C 61.054688 17.160156 61.332031 17.128906 61.867188 16.96875 C 62.445312 16.785156 62.488281 16.746094 62.488281 16.242188 L 62.488281 15.707031 L 60.5625 15.707031 L 60.5625 16.171875 C 60.5625 16.539062 60.496094 16.632812 60.242188 16.632812 C 59.984375 16.632812 59.921875 16.539062 59.921875 16.171875 L 59.921875 15.707031 L 57.757812 15.707031 Z M 57.800781 16.148438 "/>
<path style=" stroke:none;fill-rule:nonzero;fill:rgb(0%,0%,0%);fill-opacity:1;" d="M 63.984375 16.433594 L 63.984375 17.160156 L 67.625 17.160156 L 67.625 16.632812 L 65.910156 16.632812 L 65.910156 15.707031 L 63.984375 15.707031 Z M 63.984375 16.433594 "/>
<path style=" stroke:none;fill-rule:nonzero;fill:rgb(0%,0%,0%);fill-opacity:1;" d="M 68.695312 16.433594 L 68.695312 17.160156 L 72.332031 17.160156 L 72.332031 16.632812 L 70.621094 16.632812 L 70.621094 15.707031 L 68.695312 15.707031 Z M 68.695312 16.433594 "/>
<path style=" stroke:none;fill-rule:nonzero;fill:rgb(0%,0%,0%);fill-opacity:1;" d="M 80.464844 16.433594 L 80.464844 17.160156 L 81.214844 17.160156 C 81.941406 17.160156 81.960938 17.152344 81.960938 16.894531 C 81.960938 16.636719 81.984375 16.632812 82.710938 16.632812 C 83.4375 16.632812 83.460938 16.636719 83.460938 16.894531 C 83.460938 17.148438 83.503906 17.160156 84.101562 17.160156 L 84.742188 17.160156 L 84.742188 15.707031 L 83.996094 15.707031 C 83.265625 15.707031 83.265625 15.714844 83.308594 15.953125 C 83.351562 16.191406 83.308594 16.203125 82.667969 16.222656 C 81.984375 16.242188 81.960938 16.234375 81.960938 15.980469 C 81.960938 15.714844 81.941406 15.707031 81.214844 15.707031 L 80.464844 15.707031 Z M 80.464844 16.433594 "/>
<path style=" stroke:none;fill-rule:nonzero;fill:rgb(0%,0%,0%);fill-opacity:1;" d="M 10.058594 16.433594 C 10.058594 16.46875 10.164062 16.5 10.292969 16.5 C 10.402344 16.5 10.441406 16.46875 10.378906 16.433594 C 10.316406 16.394531 10.207031 16.367188 10.144531 16.367188 C 10.101562 16.367188 10.058594 16.394531 10.058594 16.433594 Z M 10.058594 16.433594 "/>
<path style=" stroke:none;fill-rule:nonzero;fill:rgb(0%,0%,0%);fill-opacity:1;" d="M 35.332031 17.1875 C 34.496094 17.636719 33.8125 18.019531 33.8125 18.042969 C 33.8125 18.0625 34.816406 18.085938 36.039062 18.085938 L 38.261719 18.085938 L 38.734375 17.851562 C 39.203125 17.617188 39.183594 17.429688 38.648438 17.296875 C 38.414062 17.238281 38.261719 17.273438 37.898438 17.457031 C 37.558594 17.640625 37.320312 17.6875 36.808594 17.6875 C 36.464844 17.6875 36.164062 17.667969 36.164062 17.640625 C 36.164062 17.617188 36.65625 17.332031 37.234375 17.015625 C 37.835938 16.699219 38.304688 16.421875 38.304688 16.402344 C 38.304688 16.382812 37.984375 16.367188 37.578125 16.367188 C 36.851562 16.367188 36.808594 16.386719 35.332031 17.1875 Z M 35.332031 17.1875 "/>
<path style=" stroke:none;fill-rule:nonzero;fill:rgb(0%,0%,0%);fill-opacity:1;" d="M 25.53125 16.546875 C 25.125 16.59375 25.1875 16.816406 25.703125 17.160156 C 26.238281 17.53125 27.027344 17.792969 28.140625 17.964844 L 28.976562 18.105469 L 28.3125 17.867188 C 27.390625 17.542969 26.621094 17.121094 26.320312 16.777344 C 26.085938 16.5 26.023438 16.480469 25.53125 16.546875 Z M 25.53125 16.546875 "/>
<path style=" stroke:none;fill-rule:nonzero;fill:rgb(0%,0%,0%);fill-opacity:1;" d="M 23.988281 16.882812 C 23.734375 17.027344 24.4375 17.535156 25.359375 17.871094 C 25.980469 18.105469 27.476562 18.367188 28.570312 18.433594 L 29.210938 18.480469 L 28.675781 18.359375 C 26.964844 17.992188 26.363281 17.8125 25.722656 17.488281 C 25.335938 17.292969 24.953125 17.046875 24.886719 16.941406 C 24.761719 16.738281 24.289062 16.703125 23.988281 16.882812 Z M 23.988281 16.882812 "/>
<path style=" stroke:none;fill-rule:nonzero;fill:rgb(0%,0%,0%);fill-opacity:1;" d="M 10.078125 17.019531 C 9.867188 17.0625 9.972656 17.121094 10.527344 17.253906 C 10.933594 17.34375 11.34375 17.425781 11.40625 17.425781 C 11.726562 17.425781 11.535156 17.132812 11.191406 17.054688 C 10.742188 16.949219 10.484375 16.941406 10.078125 17.019531 Z M 10.078125 17.019531 "/>
<path style=" stroke:none;fill-rule:nonzero;fill:rgb(0%,0%,0%);fill-opacity:1;" d="M 13.054688 17.09375 C 13.054688 17.128906 13.160156 17.160156 13.269531 17.160156 C 13.394531 17.160156 13.480469 17.128906 13.480469 17.09375 C 13.480469 17.054688 13.394531 17.027344 13.269531 17.027344 C 13.160156 17.027344 13.054688 17.054688 13.054688 17.09375 Z M 13.054688 17.09375 "/>
</g>
</svg>
